<mxfile host="app.diagrams.net" modified="2020-12-22T01:53:25.358Z" agent="5.0 (Windows NT 10.0; Win64; x64) AppleWebKit/537.36 (KHTML, like Gecko) Chrome/79.0.3945.88 Safari/537.36" etag="0ttBdkjhyI4Gl6lVEBG-" version="14.0.1" type="github">
  <diagram id="2i-kSuf8YJ6PZaOD5piu" name="Page-1">
    <mxGraphModel dx="2302" dy="1122" grid="1" gridSize="10" guides="1" tooltips="1" connect="1" arrows="1" fold="1" page="1" pageScale="1" pageWidth="827" pageHeight="1169" math="0" shadow="0">
      <root>
        <mxCell id="0" />
        <mxCell id="1" parent="0" />
        <mxCell id="gaz1Uu5AwIauGs2SwcmH-2" value="" style="rounded=1;whiteSpace=wrap;html=1;" vertex="1" parent="1">
          <mxGeometry x="200" y="200" width="120" height="60" as="geometry" />
        </mxCell>
        <mxCell id="gaz1Uu5AwIauGs2SwcmH-5" value="" style="group" vertex="1" connectable="0" parent="1">
          <mxGeometry x="160" y="530" width="100" height="40" as="geometry" />
        </mxCell>
        <mxCell id="gaz1Uu5AwIauGs2SwcmH-3" value="" style="rounded=0;whiteSpace=wrap;html=1;fillColor=#B3B3B3;" vertex="1" parent="gaz1Uu5AwIauGs2SwcmH-5">
          <mxGeometry width="50" height="40" as="geometry" />
        </mxCell>
        <mxCell id="gaz1Uu5AwIauGs2SwcmH-4" value="" style="rounded=0;whiteSpace=wrap;html=1;" vertex="1" parent="gaz1Uu5AwIauGs2SwcmH-5">
          <mxGeometry x="50" width="50" height="40" as="geometry" />
        </mxCell>
        <mxCell id="gaz1Uu5AwIauGs2SwcmH-7" value="" style="endArrow=classic;html=1;entryX=0;entryY=0;entryDx=0;entryDy=0;" edge="1" parent="1" target="gaz1Uu5AwIauGs2SwcmH-4">
          <mxGeometry width="50" height="50" relative="1" as="geometry">
            <mxPoint x="210" y="480" as="sourcePoint" />
            <mxPoint x="270" y="440" as="targetPoint" />
          </mxGeometry>
        </mxCell>
        <mxCell id="gaz1Uu5AwIauGs2SwcmH-8" value="&lt;font style=&quot;font-size: 14px&quot;&gt;head&lt;/font&gt;" style="text;html=1;strokeColor=none;fillColor=none;align=center;verticalAlign=middle;whiteSpace=wrap;rounded=0;" vertex="1" parent="1">
          <mxGeometry x="190" y="450" width="40" height="20" as="geometry" />
        </mxCell>
      </root>
    </mxGraphModel>
  </diagram>
</mxfile>
